<mxfile host="app.diagrams.net" modified="2021-07-27T04:23:26.194Z" agent="5.0 (X11; CrOS x86_64 13729.85.0) AppleWebKit/537.36 (KHTML, like Gecko) Chrome/89.0.4389.130 Safari/537.36" etag="IKUdQOsHfuR07qc9l22L" version="14.9.2" type="github">
  <diagram id="L4NUBeUkvTrjJ88IvzQq" name="Page-1">
    <mxGraphModel dx="868" dy="442" grid="1" gridSize="10" guides="1" tooltips="1" connect="1" arrows="1" fold="1" page="1" pageScale="1" pageWidth="850" pageHeight="1100" math="0" shadow="0">
      <root>
        <mxCell id="0" />
        <mxCell id="1" parent="0" />
        <mxCell id="WlXb9yJ32QEBXPdYZjcP-4" value="Server Closet" style="shape=internalStorage;whiteSpace=wrap;html=1;backgroundOutline=1;dx=10;dy=20;fillColor=none;verticalAlign=top;movable=1;resizable=1;rotatable=1;deletable=1;editable=1;connectable=1;" vertex="1" parent="1">
          <mxGeometry x="860" y="10" width="830" height="1080" as="geometry" />
        </mxCell>
        <mxCell id="pv2xJZQXWwtwMIzsn-Jm-3" value="&lt;h1 style=&quot;font-size: 48px&quot;&gt;Legend&lt;/h1&gt;" style="text;html=1;strokeColor=none;fillColor=none;spacing=5;spacingTop=-20;whiteSpace=wrap;overflow=hidden;rounded=0;" parent="1" vertex="1">
          <mxGeometry x="30" y="20" width="260" height="120" as="geometry" />
        </mxCell>
        <mxCell id="pv2xJZQXWwtwMIzsn-Jm-4" value="Input" style="rounded=1;whiteSpace=wrap;html=1;gradientColor=#d5739d;fillColor=#e6d0de;strokeColor=#996185;" parent="1" vertex="1">
          <mxGeometry x="568" y="120" width="120" height="60" as="geometry" />
        </mxCell>
        <mxCell id="pv2xJZQXWwtwMIzsn-Jm-5" value="Output" style="rounded=1;whiteSpace=wrap;html=1;gradientColor=#97d077;fillColor=#d5e8d4;strokeColor=#82b366;" parent="1" vertex="1">
          <mxGeometry x="700" y="120" width="120" height="60" as="geometry" />
        </mxCell>
        <mxCell id="pv2xJZQXWwtwMIzsn-Jm-6" value="Gateway / Bridge / Hub" style="rounded=1;whiteSpace=wrap;html=1;gradientColor=#ea6b66;fillColor=#f8cecc;strokeColor=#b85450;" parent="1" vertex="1">
          <mxGeometry x="304" y="120" width="120" height="60" as="geometry" />
        </mxCell>
        <mxCell id="pv2xJZQXWwtwMIzsn-Jm-7" value="Smart Device / Controller" style="rounded=1;whiteSpace=wrap;html=1;gradientColor=#7ea6e0;fillColor=#dae8fc;strokeColor=#6c8ebf;" parent="1" vertex="1">
          <mxGeometry x="172" y="120" width="120" height="60" as="geometry" />
        </mxCell>
        <mxCell id="pv2xJZQXWwtwMIzsn-Jm-8" value="Circuit" style="shape=process;whiteSpace=wrap;html=1;backgroundOutline=1;gradientColor=#ffd966;fillColor=#fff2cc;strokeColor=#d6b656;" parent="1" vertex="1">
          <mxGeometry x="436" y="120" width="120" height="60" as="geometry" />
        </mxCell>
        <mxCell id="pv2xJZQXWwtwMIzsn-Jm-9" value="Room" style="shape=internalStorage;whiteSpace=wrap;html=1;backgroundOutline=1;dx=10;dy=20;fillColor=none;verticalAlign=top;" parent="1" vertex="1">
          <mxGeometry x="40" y="120" width="120" height="60" as="geometry" />
        </mxCell>
        <mxCell id="pv2xJZQXWwtwMIzsn-Jm-13" value="Ethernet" style="edgeStyle=orthogonalEdgeStyle;orthogonalLoop=1;jettySize=auto;html=1;startArrow=block;startFill=1;endArrow=block;endFill=1;strokeColor=#006EAF;strokeWidth=2;fillColor=#1ba1e2;fontStyle=1;fontSize=15;" parent="1" edge="1">
          <mxGeometry x="-0.1818" relative="1" as="geometry">
            <Array as="points">
              <mxPoint x="120" y="290" />
              <mxPoint x="120" y="260" />
              <mxPoint x="40" y="260" />
              <mxPoint x="40" y="230" />
            </Array>
            <mxPoint x="100" y="290" as="sourcePoint" />
            <mxPoint x="100" y="230" as="targetPoint" />
            <mxPoint as="offset" />
          </mxGeometry>
        </mxCell>
        <mxCell id="pv2xJZQXWwtwMIzsn-Jm-16" value="Zigbee" style="edgeStyle=orthogonalEdgeStyle;orthogonalLoop=1;jettySize=auto;html=1;startArrow=block;startFill=1;endArrow=block;endFill=1;strokeColor=#2D7600;strokeWidth=2;fillColor=#60a917;fontStyle=1;fontSize=15;" parent="1" edge="1">
          <mxGeometry x="-0.1818" relative="1" as="geometry">
            <Array as="points">
              <mxPoint x="240" y="290" />
              <mxPoint x="240" y="260" />
              <mxPoint x="160" y="260" />
              <mxPoint x="160" y="230" />
            </Array>
            <mxPoint x="220" y="290" as="sourcePoint" />
            <mxPoint x="220" y="230" as="targetPoint" />
            <mxPoint as="offset" />
          </mxGeometry>
        </mxCell>
        <mxCell id="pv2xJZQXWwtwMIzsn-Jm-17" value="RF" style="edgeStyle=orthogonalEdgeStyle;orthogonalLoop=1;jettySize=auto;html=1;startArrow=halfCircle;startFill=0;endArrow=oval;endFill=1;strokeColor=#3700CC;strokeWidth=2;fillColor=#6a00ff;fontStyle=1;fontSize=15;" parent="1" edge="1">
          <mxGeometry x="-0.1818" relative="1" as="geometry">
            <Array as="points">
              <mxPoint x="360" y="290" />
              <mxPoint x="360" y="260" />
              <mxPoint x="280" y="260" />
              <mxPoint x="280" y="230" />
            </Array>
            <mxPoint x="340" y="290" as="sourcePoint" />
            <mxPoint x="340" y="230" as="targetPoint" />
            <mxPoint as="offset" />
          </mxGeometry>
        </mxCell>
        <mxCell id="pv2xJZQXWwtwMIzsn-Jm-18" value="IR" style="edgeStyle=orthogonalEdgeStyle;orthogonalLoop=1;jettySize=auto;html=1;startArrow=halfCircle;startFill=0;endArrow=oval;endFill=1;strokeColor=#6F0000;strokeWidth=2;fillColor=#a20025;fontStyle=1;fontSize=15;" parent="1" edge="1">
          <mxGeometry x="-0.1818" relative="1" as="geometry">
            <Array as="points">
              <mxPoint x="360" y="410" />
              <mxPoint x="360" y="380" />
              <mxPoint x="280" y="380" />
              <mxPoint x="280" y="350" />
            </Array>
            <mxPoint x="340" y="410" as="sourcePoint" />
            <mxPoint x="340" y="350" as="targetPoint" />
            <mxPoint as="offset" />
          </mxGeometry>
        </mxCell>
        <mxCell id="pv2xJZQXWwtwMIzsn-Jm-19" value="USB" style="edgeStyle=orthogonalEdgeStyle;orthogonalLoop=1;jettySize=auto;html=1;startArrow=box;startFill=0;endArrow=block;endFill=0;strokeColor=#001DBC;strokeWidth=2;fillColor=#0050ef;fontStyle=1;fontSize=15;" parent="1" edge="1">
          <mxGeometry x="-0.1818" relative="1" as="geometry">
            <Array as="points">
              <mxPoint x="480" y="410" />
              <mxPoint x="480" y="380" />
              <mxPoint x="400" y="380" />
              <mxPoint x="400" y="350" />
            </Array>
            <mxPoint x="460" y="410" as="sourcePoint" />
            <mxPoint x="460" y="350" as="targetPoint" />
            <mxPoint as="offset" />
          </mxGeometry>
        </mxCell>
        <mxCell id="pv2xJZQXWwtwMIzsn-Jm-20" value="Z-Wave" style="edgeStyle=orthogonalEdgeStyle;orthogonalLoop=1;jettySize=auto;html=1;startArrow=block;startFill=1;endArrow=block;endFill=1;strokeColor=#A50040;strokeWidth=2;fillColor=#d80073;fontStyle=1;fontSize=15;" parent="1" edge="1">
          <mxGeometry x="-0.1818" relative="1" as="geometry">
            <Array as="points">
              <mxPoint x="240" y="410" />
              <mxPoint x="240" y="380" />
              <mxPoint x="160" y="380" />
              <mxPoint x="160" y="350" />
            </Array>
            <mxPoint x="220" y="410" as="sourcePoint" />
            <mxPoint x="220" y="350" as="targetPoint" />
            <mxPoint as="offset" />
          </mxGeometry>
        </mxCell>
        <mxCell id="pv2xJZQXWwtwMIzsn-Jm-21" value="Direct Wire" style="edgeStyle=orthogonalEdgeStyle;orthogonalLoop=1;jettySize=auto;html=1;startArrow=block;startFill=1;endArrow=block;endFill=1;strokeWidth=2;fillColor=#dae8fc;fontStyle=1;fontSize=15;" parent="1" edge="1">
          <mxGeometry x="-0.1818" relative="1" as="geometry">
            <Array as="points">
              <mxPoint x="480" y="290" />
              <mxPoint x="480" y="260" />
              <mxPoint x="400" y="260" />
              <mxPoint x="400" y="230" />
            </Array>
            <mxPoint x="460" y="290" as="sourcePoint" />
            <mxPoint x="460" y="230" as="targetPoint" />
            <mxPoint as="offset" />
          </mxGeometry>
        </mxCell>
        <mxCell id="pv2xJZQXWwtwMIzsn-Jm-22" value="Wifi" style="edgeStyle=orthogonalEdgeStyle;orthogonalLoop=1;jettySize=auto;html=1;startArrow=block;startFill=1;endArrow=block;endFill=1;strokeColor=#006EAF;strokeWidth=2;fillColor=#1ba1e2;fontStyle=1;fontSize=15;dashed=1;" parent="1" edge="1">
          <mxGeometry x="-0.1818" relative="1" as="geometry">
            <Array as="points">
              <mxPoint x="120" y="410" />
              <mxPoint x="120" y="380" />
              <mxPoint x="40" y="380" />
              <mxPoint x="40" y="350" />
            </Array>
            <mxPoint x="100" y="410" as="sourcePoint" />
            <mxPoint x="100" y="350" as="targetPoint" />
            <mxPoint as="offset" />
          </mxGeometry>
        </mxCell>
        <mxCell id="WlXb9yJ32QEBXPdYZjcP-2" value="Garage" style="shape=internalStorage;whiteSpace=wrap;html=1;backgroundOutline=1;dx=10;dy=20;fillColor=none;verticalAlign=top;" vertex="1" parent="1">
          <mxGeometry x="1710" y="10" width="830" height="1080" as="geometry" />
        </mxCell>
        <mxCell id="WlXb9yJ32QEBXPdYZjcP-3" value="Garage Wifi Point" style="rounded=1;whiteSpace=wrap;html=1;gradientColor=#ea6b66;fillColor=#f8cecc;strokeColor=#b85450;verticalAlign=top;" vertex="1" parent="1">
          <mxGeometry x="1730" y="40" width="120" height="60" as="geometry" />
        </mxCell>
        <mxCell id="WlXb9yJ32QEBXPdYZjcP-10" style="edgeStyle=orthogonalEdgeStyle;rounded=1;orthogonalLoop=1;jettySize=auto;html=1;exitX=0.5;exitY=1;exitDx=0;exitDy=0;entryX=0.5;entryY=0;entryDx=0;entryDy=0;startArrow=box;startFill=0;endArrow=block;endFill=0;strokeColor=#001DBC;fontSize=15;fontStyle=1;strokeWidth=2;fillColor=#0050ef;" edge="1" parent="1" source="WlXb9yJ32QEBXPdYZjcP-5" target="WlXb9yJ32QEBXPdYZjcP-6">
          <mxGeometry relative="1" as="geometry" />
        </mxCell>
        <mxCell id="WlXb9yJ32QEBXPdYZjcP-11" style="edgeStyle=orthogonalEdgeStyle;rounded=1;orthogonalLoop=1;jettySize=auto;html=1;exitX=0.5;exitY=1;exitDx=0;exitDy=0;entryX=0.5;entryY=0;entryDx=0;entryDy=0;startArrow=box;startFill=0;endArrow=block;endFill=0;strokeColor=#001DBC;fontSize=15;fontStyle=1;strokeWidth=2;fillColor=#0050ef;" edge="1" parent="1" source="WlXb9yJ32QEBXPdYZjcP-5" target="WlXb9yJ32QEBXPdYZjcP-7">
          <mxGeometry relative="1" as="geometry">
            <Array as="points">
              <mxPoint x="950" y="300" />
              <mxPoint x="1080" y="300" />
            </Array>
          </mxGeometry>
        </mxCell>
        <mxCell id="WlXb9yJ32QEBXPdYZjcP-5" value="HA Blue" style="rounded=1;whiteSpace=wrap;html=1;gradientColor=#7ea6e0;fillColor=#dae8fc;strokeColor=#6c8ebf;verticalAlign=top;" vertex="1" parent="1">
          <mxGeometry x="890" y="200" width="120" height="60" as="geometry" />
        </mxCell>
        <mxCell id="WlXb9yJ32QEBXPdYZjcP-6" value="Z-Wave&lt;br&gt;USB Stick" style="rounded=1;whiteSpace=wrap;html=1;gradientColor=#ea6b66;fillColor=#f8cecc;strokeColor=#b85450;verticalAlign=top;" vertex="1" parent="1">
          <mxGeometry x="890" y="320" width="120" height="60" as="geometry" />
        </mxCell>
        <mxCell id="WlXb9yJ32QEBXPdYZjcP-7" value="USB &lt;br&gt;Bluetooth" style="rounded=1;whiteSpace=wrap;html=1;gradientColor=#ea6b66;fillColor=#f8cecc;strokeColor=#b85450;verticalAlign=top;" vertex="1" parent="1">
          <mxGeometry x="1020" y="320" width="120" height="60" as="geometry" />
        </mxCell>
        <mxCell id="WlXb9yJ32QEBXPdYZjcP-14" style="edgeStyle=orthogonalEdgeStyle;rounded=1;orthogonalLoop=1;jettySize=auto;html=1;startArrow=block;startFill=1;endArrow=block;endFill=1;strokeColor=#006EAF;fontSize=15;fontStyle=1;strokeWidth=2;fillColor=#1ba1e2;" edge="1" parent="1" source="WlXb9yJ32QEBXPdYZjcP-12" target="WlXb9yJ32QEBXPdYZjcP-13">
          <mxGeometry relative="1" as="geometry">
            <mxPoint x="1040" y="110" as="sourcePoint" />
          </mxGeometry>
        </mxCell>
        <mxCell id="WlXb9yJ32QEBXPdYZjcP-12" value="Internet Modem" style="rounded=1;whiteSpace=wrap;html=1;gradientColor=#ea6b66;fillColor=#f8cecc;strokeColor=#b85450;verticalAlign=top;" vertex="1" parent="1">
          <mxGeometry x="890" y="50" width="120" height="60" as="geometry" />
        </mxCell>
        <mxCell id="WlXb9yJ32QEBXPdYZjcP-18" style="edgeStyle=orthogonalEdgeStyle;rounded=1;orthogonalLoop=1;jettySize=auto;html=1;startArrow=block;startFill=1;endArrow=block;endFill=1;strokeColor=#006EAF;fontSize=15;fontStyle=1;strokeWidth=2;fillColor=#1ba1e2;" edge="1" parent="1" source="WlXb9yJ32QEBXPdYZjcP-13" target="WlXb9yJ32QEBXPdYZjcP-16">
          <mxGeometry relative="1" as="geometry" />
        </mxCell>
        <mxCell id="WlXb9yJ32QEBXPdYZjcP-13" value="Google TP-Link OnHub&lt;br&gt;(Primary Point)" style="rounded=1;whiteSpace=wrap;html=1;gradientColor=#ea6b66;fillColor=#f8cecc;strokeColor=#b85450;verticalAlign=top;" vertex="1" parent="1">
          <mxGeometry x="1060" y="50" width="120" height="60" as="geometry" />
        </mxCell>
        <mxCell id="WlXb9yJ32QEBXPdYZjcP-19" style="edgeStyle=orthogonalEdgeStyle;rounded=1;orthogonalLoop=1;jettySize=auto;html=1;exitX=0.5;exitY=1;exitDx=0;exitDy=0;entryX=0.5;entryY=0;entryDx=0;entryDy=0;startArrow=block;startFill=1;endArrow=block;endFill=1;strokeColor=#006EAF;fontSize=15;fontStyle=1;strokeWidth=2;fillColor=#1ba1e2;" edge="1" parent="1" source="WlXb9yJ32QEBXPdYZjcP-16" target="WlXb9yJ32QEBXPdYZjcP-5">
          <mxGeometry relative="1" as="geometry">
            <Array as="points">
              <mxPoint x="1300" y="130" />
              <mxPoint x="950" y="130" />
            </Array>
          </mxGeometry>
        </mxCell>
        <mxCell id="WlXb9yJ32QEBXPdYZjcP-22" style="edgeStyle=orthogonalEdgeStyle;rounded=1;orthogonalLoop=1;jettySize=auto;html=1;exitX=0.5;exitY=1;exitDx=0;exitDy=0;startArrow=block;startFill=1;endArrow=block;endFill=1;strokeColor=#006EAF;fontSize=15;fontStyle=1;strokeWidth=2;fillColor=#1ba1e2;" edge="1" parent="1" source="WlXb9yJ32QEBXPdYZjcP-16" target="WlXb9yJ32QEBXPdYZjcP-21">
          <mxGeometry relative="1" as="geometry">
            <Array as="points">
              <mxPoint x="1300" y="130" />
              <mxPoint x="1090" y="130" />
            </Array>
          </mxGeometry>
        </mxCell>
        <mxCell id="WlXb9yJ32QEBXPdYZjcP-16" value="Gigabit Ethernet Switch" style="rounded=1;whiteSpace=wrap;html=1;gradientColor=#ea6b66;fillColor=#f8cecc;strokeColor=#b85450;verticalAlign=top;" vertex="1" parent="1">
          <mxGeometry x="1240" y="50" width="120" height="60" as="geometry" />
        </mxCell>
        <mxCell id="WlXb9yJ32QEBXPdYZjcP-26" style="edgeStyle=orthogonalEdgeStyle;rounded=1;orthogonalLoop=1;jettySize=auto;html=1;startArrow=block;startFill=1;endArrow=block;endFill=1;strokeColor=#2D7600;fontSize=15;fontStyle=1;strokeWidth=2;fillColor=#60a917;" edge="1" parent="1" source="WlXb9yJ32QEBXPdYZjcP-21" target="WlXb9yJ32QEBXPdYZjcP-25">
          <mxGeometry relative="1" as="geometry">
            <mxPoint x="350" y="1010" as="targetPoint" />
            <Array as="points">
              <mxPoint x="1090" y="280" />
              <mxPoint x="850" y="280" />
              <mxPoint x="850" y="1150" />
              <mxPoint x="390" y="1150" />
            </Array>
          </mxGeometry>
        </mxCell>
        <mxCell id="WlXb9yJ32QEBXPdYZjcP-27" style="edgeStyle=orthogonalEdgeStyle;rounded=1;orthogonalLoop=1;jettySize=auto;html=1;startArrow=block;startFill=1;endArrow=block;endFill=1;strokeColor=#2D7600;fontSize=15;fontStyle=1;strokeWidth=2;fillColor=#60a917;" edge="1" parent="1" source="WlXb9yJ32QEBXPdYZjcP-21" target="WlXb9yJ32QEBXPdYZjcP-24">
          <mxGeometry relative="1" as="geometry">
            <mxPoint x="260" y="1120" as="targetPoint" />
            <Array as="points">
              <mxPoint x="1090" y="280" />
              <mxPoint x="850" y="280" />
              <mxPoint x="850" y="1150" />
              <mxPoint x="245" y="1150" />
            </Array>
          </mxGeometry>
        </mxCell>
        <mxCell id="WlXb9yJ32QEBXPdYZjcP-28" style="edgeStyle=orthogonalEdgeStyle;rounded=1;orthogonalLoop=1;jettySize=auto;html=1;startArrow=block;startFill=1;endArrow=block;endFill=1;strokeColor=#2D7600;fontSize=15;fontStyle=1;strokeWidth=2;fillColor=#60a917;" edge="1" parent="1" source="WlXb9yJ32QEBXPdYZjcP-21" target="WlXb9yJ32QEBXPdYZjcP-23">
          <mxGeometry relative="1" as="geometry">
            <mxPoint x="580" y="1040" as="targetPoint" />
            <Array as="points">
              <mxPoint x="1090" y="280" />
              <mxPoint x="850" y="280" />
              <mxPoint x="850" y="1150" />
              <mxPoint x="120" y="1150" />
            </Array>
          </mxGeometry>
        </mxCell>
        <mxCell id="WlXb9yJ32QEBXPdYZjcP-21" value="Phillips Hue Bridge" style="rounded=1;whiteSpace=wrap;html=1;gradientColor=#ea6b66;fillColor=#f8cecc;strokeColor=#b85450;verticalAlign=top;" vertex="1" parent="1">
          <mxGeometry x="1030" y="200" width="120" height="60" as="geometry" />
        </mxCell>
        <mxCell id="WlXb9yJ32QEBXPdYZjcP-23" value="Hue White Bulb" style="rounded=1;whiteSpace=wrap;html=1;gradientColor=#7ea6e0;fillColor=#dae8fc;strokeColor=#6c8ebf;verticalAlign=top;" vertex="1" parent="1">
          <mxGeometry x="60" y="1170" width="120" height="60" as="geometry" />
        </mxCell>
        <mxCell id="WlXb9yJ32QEBXPdYZjcP-24" value="Hue White Bulb" style="rounded=1;whiteSpace=wrap;html=1;gradientColor=#7ea6e0;fillColor=#dae8fc;strokeColor=#6c8ebf;verticalAlign=top;" vertex="1" parent="1">
          <mxGeometry x="185" y="1170" width="120" height="60" as="geometry" />
        </mxCell>
        <mxCell id="WlXb9yJ32QEBXPdYZjcP-25" value="Hue White Bulb" style="rounded=1;whiteSpace=wrap;html=1;gradientColor=#7ea6e0;fillColor=#dae8fc;strokeColor=#6c8ebf;verticalAlign=top;" vertex="1" parent="1">
          <mxGeometry x="330" y="1170" width="120" height="60" as="geometry" />
        </mxCell>
        <mxCell id="WlXb9yJ32QEBXPdYZjcP-29" value="Bluetooth" style="edgeStyle=orthogonalEdgeStyle;orthogonalLoop=1;jettySize=auto;html=1;startArrow=block;startFill=1;endArrow=block;endFill=1;strokeWidth=2;fillColor=#1ba1e2;fontStyle=1;fontSize=15;dashed=1;strokeColor=#00FFFF;dashPattern=1 2;jumpSize=6;" edge="1" parent="1">
          <mxGeometry x="-0.1818" relative="1" as="geometry">
            <Array as="points">
              <mxPoint x="600" y="290" />
              <mxPoint x="600" y="260" />
              <mxPoint x="520" y="260" />
              <mxPoint x="520" y="230" />
            </Array>
            <mxPoint x="580" y="290" as="sourcePoint" />
            <mxPoint x="580" y="230" as="targetPoint" />
            <mxPoint as="offset" />
          </mxGeometry>
        </mxCell>
        <mxCell id="WlXb9yJ32QEBXPdYZjcP-30" value="&lt;h1&gt;Office&lt;/h1&gt;" style="text;html=1;strokeColor=none;fillColor=none;align=center;verticalAlign=middle;whiteSpace=wrap;rounded=0;" vertex="1" parent="1">
          <mxGeometry x="310" y="1111" width="40" height="20" as="geometry" />
        </mxCell>
      </root>
    </mxGraphModel>
  </diagram>
</mxfile>
